0
SECTION
2
HEADER
9
$INSUNITS
70
4
9
$ACADVER
1
AC1014
9
$HANDSEED
5
FFFF
0
ENDSEC
0
SECTION
2
TABLES
0
TABLE
2
VPORT
5
8
100
AcDbSymbolTable
0
ENDTAB
0
TABLE
2
LTYPE
5
5
100
AcDbSymbolTable
0
LTYPE
5
14
100
AcDbSymbolTableRecord
100
AcDbLinetypeTableRecord
2
BYBLOCK
70
0
0
LTYPE
5
15
100
AcDbSymbolTableRecord
100
AcDbLinetypeTableRecord
2
BYLAYER
70
0
0
ENDTAB
0
TABLE
2
LAYER
5
2
100
AcDbSymbolTable
70
2
0
LAYER
5
50
100
AcDbSymbolTableRecord
100
AcDbLayerTableRecord
2
0
70
0
6
CONTINUOUS
0
ENDTAB
0
TABLE
2
STYLE
5
3
100
AcDbSymbolTable
70
1
0
STYLE
5
11
100
AcDbSymbolTableRecord
100
AcDbTextStyleTableRecord
2
STANDARD
70
0
0
ENDTAB
0
TABLE
2
VIEW
5
6
100
AcDbSymbolTable
70
0
0
ENDTAB
0
TABLE
2
UCS
5
7
100
AcDbSymbolTable
70
0
0
ENDTAB
0
TABLE
2
APPID
5
9
100
AcDbSymbolTable
70
2
0
APPID
5
12
100
AcDbSymbolTableRecord
100
AcDbRegAppTableRecord
2
ACAD
70
0
0
ENDTAB
0
TABLE
2
DIMSTYLE
5
A
100
AcDbSymbolTable
70
1
0
ENDTAB
0
TABLE
2
BLOCK_RECORD
5
1
100
AcDbSymbolTable
70
1
0
BLOCK_RECORD
5
1F
100
AcDbSymbolTableRecord
100
AcDbBlockTableRecord
2
*MODEL_SPACE
0
BLOCK_RECORD
5
1B
100
AcDbSymbolTableRecord
100
AcDbBlockTableRecord
2
*PAPER_SPACE
0
ENDTAB
0
ENDSEC
0
SECTION
2
BLOCKS
0
BLOCK
5
20
100
AcDbEntity
100
AcDbBlockBegin
2
*MODEL_SPACE
0
ENDBLK
5
21
100
AcDbEntity
100
AcDbBlockEnd
0
BLOCK
5
1C
100
AcDbEntity
100
AcDbBlockBegin
2
*PAPER_SPACE
0
ENDBLK
5
1D
100
AcDbEntity
100
AcDbBlockEnd
0
ENDSEC
0
SECTION
2
ENTITIES
0
LINE
5
100
100
AcDbEntity
8
0
100
AcDbLine
10
150
20
-150
30
0
11
150
21
-160
31
0
0
LINE
5
101
100
AcDbEntity
8
0
100
AcDbLine
10
150
20
-160
30
0
11
126.0000018030405
21
-160
31
0
0
LINE
5
102
100
AcDbEntity
8
0
100
AcDbLine
10
150
20
-150
30
0
11
110.00000163912773
21
-150
31
0
0
LINE
5
103
100
AcDbEntity
8
0
100
AcDbLine
10
110.00000163912773
20
-150
30
0
11
110.00000163912773
21
-146.00000217556953
31
0
0
LINE
5
104
100
AcDbEntity
8
0
100
AcDbLine
10
110.00000163912773
20
-146.00000217556953
30
0
11
105.00000156462193
21
-146.00000217556953
31
0
0
LINE
5
105
100
AcDbEntity
8
0
100
AcDbLine
10
105.00000156462193
20
-300
30
0
11
121.0000018030405
21
-300.00000223517418
31
0
0
LINE
5
106
100
AcDbEntity
8
0
100
AcDbLine
10
105.00000156462193
20
-300
30
0
11
89.000001326203346
21
-300.00000223517418
31
0
0
LINE
5
107
100
AcDbEntity
8
0
100
AcDbLine
10
60.000003129243851
20
-160
30
0
11
84.000001326203346
21
-160
31
0
0
LINE
5
108
100
AcDbEntity
8
0
100
AcDbLine
10
60.000003129243851
20
-150
30
0
11
60.000003129243851
21
-160
31
0
0
LINE
5
109
100
AcDbEntity
8
0
100
AcDbLine
10
60.000003129243851
20
-150
30
0
11
100.00000149011612
21
-150
31
0
0
LINE
5
110
100
AcDbEntity
8
0
100
AcDbLine
10
100.00000149011612
20
-150
30
0
11
100.00000149011612
21
-146.00000217556953
31
0
0
LINE
5
111
100
AcDbEntity
8
0
100
AcDbLine
10
100.00000149011612
20
-146.00000217556953
30
0
11
105.00000156462193
21
-146.00000217556953
31
0
0
CIRCLE
5
112
100
AcDbEntity
8
0
100
AcDbCircle
10
105.00000119503952
20
-152.59999999999994
30
0
40
2.7499999999999991
210
0
220
0
230
1
0
CIRCLE
5
113
100
AcDbEntity
8
0
100
AcDbCircle
10
105.00000119503952
20
-162.59999999999991
30
0
40
2.7499999999999991
210
0
220
0
230
1
0
CIRCLE
5
114
100
AcDbEntity
8
0
100
AcDbCircle
10
105.00000119503952
20
-172.59999999999991
30
0
40
2.7499999999999991
210
0
220
0
230
1
0
CIRCLE
5
115
100
AcDbEntity
8
0
100
AcDbCircle
10
105.00000119503952
20
-182.59999999999991
30
0
40
2.7499999999999991
210
0
220
0
230
1
0
CIRCLE
5
116
100
AcDbEntity
8
0
100
AcDbCircle
10
105.00000119503952
20
-192.59999999999991
30
0
40
2.7499999999999991
210
0
220
0
230
1
0
CIRCLE
5
117
100
AcDbEntity
8
0
100
AcDbCircle
10
105.00000119503952
20
-202.59999999999991
30
0
40
2.7499999999999991
210
0
220
0
230
1
0
CIRCLE
5
118
100
AcDbEntity
8
0
100
AcDbCircle
10
105.00000119503952
20
-212.59999999999991
30
0
40
2.7499999999999991
210
0
220
0
230
1
0
CIRCLE
5
119
100
AcDbEntity
8
0
100
AcDbCircle
10
105.00000119503952
20
-222.59999999999991
30
0
40
2.7499999999999991
210
0
220
0
230
1
0
CIRCLE
5
120
100
AcDbEntity
8
0
100
AcDbCircle
10
105.00000119503952
20
-232.59999999999991
30
0
40
2.7499999999999991
210
0
220
0
230
1
0
CIRCLE
5
121
100
AcDbEntity
8
0
100
AcDbCircle
10
105.00000119503952
20
-242.59999999999991
30
0
40
2.7499999999999991
210
0
220
0
230
1
0
CIRCLE
5
122
100
AcDbEntity
8
0
100
AcDbCircle
10
105.00000119503952
20
-252.59999999999991
30
0
40
2.7499999999999991
210
0
220
0
230
1
0
CIRCLE
5
123
100
AcDbEntity
8
0
100
AcDbCircle
10
105.00000119503952
20
-262.59999999999991
30
0
40
2.7499999999999991
210
0
220
0
230
1
0
CIRCLE
5
124
100
AcDbEntity
8
0
100
AcDbCircle
10
105.00000119503952
20
-272.59999999999991
30
0
40
2.7499999999999991
210
0
220
0
230
1
0
CIRCLE
5
125
100
AcDbEntity
8
0
100
AcDbCircle
10
105.00000119503952
20
-282.59999999999991
30
0
40
2.7499999999999991
210
0
220
0
230
1
0
LINE
5
126
100
AcDbEntity
8
0
100
AcDbLine
10
126.0000018030405
20
-160
30
0
11
126.0000018030405
21
-300
31
0
0
LINE
5
127
100
AcDbEntity
8
0
100
AcDbLine
10
126.0000018030405
20
-300
30
0
11
121.0000018030405
21
-300
31
0
0
LINE
5
128
100
AcDbEntity
8
0
100
AcDbLine
10
84.000001326203346
20
-160
30
0
11
84.000001326203346
21
-300
31
0
0
LINE
5
129
100
AcDbEntity
8
0
100
AcDbLine
10
84.000001326203346
20
-300
30
0
11
89.000001326203346
21
-300
31
0
0
ENDSEC
0
SECTION
2
OBJECTS
0
DICTIONARY
5
C
100
AcDbDictionary
3
ACAD_GROUP
350
D
3
ACAD_MLINESTYLE
350
17
0
DICTIONARY
5
D
100
AcDbDictionary
0
DICTIONARY
5
1A
330
C
100
AcDbDictionary
0
DICTIONARY
5
17
100
AcDbDictionary
0
ENDSEC
0
EOF
